<svg width="22" height="16" viewBox="0 0 22 16" fill="none" xmlns="http://www.w3.org/2000/svg">
<path d="M18.315 1.73857C16.5636 0.329193 13.793 0.0902867 13.6744 0.0816926C13.4905 0.066224 13.3152 0.169349 13.2395 0.339506C13.2327 0.349818 13.1725 0.489037 13.1055 0.705599C14.2639 0.901537 15.687 1.29513 16.9744 2.09435C17.1806 2.22154 17.2442 2.4931 17.117 2.69935C17.0328 2.83513 16.8902 2.90904 16.7423 2.90904C16.6633 2.90904 16.5825 2.88669 16.5103 2.84201C14.2966 1.46872 11.5328 1.39997 11 1.39997C10.4672 1.39997 7.70172 1.46872 5.48969 2.84201C5.28344 2.97091 5.01188 2.90732 4.88469 2.70107C4.75579 2.4931 4.81938 2.22326 5.02563 2.09435C6.31297 1.29685 7.7361 0.901537 8.89454 0.707318C8.8275 0.489037 8.76735 0.351537 8.76219 0.339506C8.68485 0.169349 8.51125 0.0627867 8.32563 0.0816926C8.20704 0.0902867 5.43641 0.329193 3.66094 1.75747C2.73454 2.61513 0.880005 7.62701 0.880005 11.96C0.880005 12.0373 0.90063 12.1112 0.938443 12.1783C2.21719 14.4264 5.70797 15.0142 6.50375 15.04C6.50719 15.04 6.51235 15.04 6.5175 15.04C6.65844 15.04 6.79079 14.9729 6.87329 14.8595L7.67766 13.7526C5.50688 13.1923 4.39829 12.2401 4.33469 12.1834C4.1525 12.0236 4.13532 11.7451 4.29688 11.5629C4.45672 11.3808 4.73516 11.3636 4.91735 11.5234C4.94313 11.5475 6.985 13.28 11 13.28C15.0219 13.28 17.0638 11.5406 17.0844 11.5234C17.2666 11.3653 17.5433 11.3808 17.7048 11.5647C17.8647 11.7469 17.8475 12.0236 17.6653 12.1834C17.6017 12.2401 16.4931 13.1923 14.3223 13.7526L15.1267 14.8595C15.2092 14.9729 15.3416 15.04 15.4825 15.04C15.4877 15.04 15.4928 15.04 15.4963 15.04C16.292 15.0142 19.7828 14.4264 21.0616 12.1783C21.0994 12.1112 21.12 12.0373 21.12 11.96C21.12 7.62701 19.2655 2.61513 18.315 1.73857ZM8.14 10.2C7.28922 10.2 6.6 9.41279 6.6 8.43997C6.6 7.46716 7.28922 6.67997 8.14 6.67997C8.99079 6.67997 9.68 7.46716 9.68 8.43997C9.68 9.41279 8.99079 10.2 8.14 10.2ZM13.86 10.2C13.0092 10.2 12.32 9.41279 12.32 8.43997C12.32 7.46716 13.0092 6.67997 13.86 6.67997C14.7108 6.67997 15.4 7.46716 15.4 8.43997C15.4 9.41279 14.7108 10.2 13.86 10.2Z" fill="white"/>
</svg>
