<svg width="15" height="15" viewBox="0 0 15 15" fill="none" xmlns="http://www.w3.org/2000/svg">
<path d="M5.68499 4.53598C4.19699 6.65998 2.98199 8.40298 2.98499 8.41048C2.99099 8.43448 7.43099 11.535 7.44299 11.523C7.45049 11.5155 8.66999 9.77548 10.155 7.65598C12.228 4.69648 12.849 3.79798 12.8355 3.78448C12.8145 3.76498 8.40149 0.674977 8.39399 0.674977C8.39099 0.674977 7.17149 2.41198 5.68499 4.53598Z" fill="white" fill-opacity="0.33"/>
<path d="M2.60994 9.1905C2.60994 9.213 2.59944 9.3465 2.58744 9.4875C2.55294 9.873 2.49444 10.5375 2.44494 11.1075C2.34294 12.2955 2.32344 12.519 2.29494 12.825C2.27844 13.002 2.24844 13.35 2.22744 13.5975C2.20644 13.845 2.18244 14.1075 2.17644 14.1825C2.16894 14.256 2.16444 14.319 2.16744 14.322C2.16894 14.325 2.22444 14.3025 2.28894 14.271C2.35494 14.241 2.44494 14.2005 2.48994 14.1795C2.53494 14.1585 2.65644 14.1015 2.75844 14.0535C2.85894 14.004 2.94444 13.965 2.94744 13.965C2.95194 13.965 3.14244 13.8765 3.39744 13.755C3.55944 13.6785 3.75594 13.587 3.84744 13.545C3.88944 13.527 4.00494 13.4715 4.10694 13.4235C4.20894 13.374 4.29444 13.335 4.29744 13.335C4.30044 13.335 4.38744 13.2945 4.49244 13.245C4.59744 13.1955 4.68444 13.155 4.68894 13.155C4.69194 13.155 4.77744 13.116 4.87794 13.0665C5.13144 12.9465 5.28294 12.8745 5.41494 12.8145C5.47644 12.7845 5.57094 12.741 5.62494 12.717C5.67894 12.6915 5.77944 12.6435 5.84994 12.612C5.92044 12.579 6.01494 12.534 6.05994 12.5145C6.22494 12.438 6.35994 12.375 6.73944 12.1965L6.87294 12.1335L6.83694 12.1065C6.79644 12.0765 2.65944 9.1785 2.62944 9.1605C2.61594 9.1515 2.60994 9.1605 2.60994 9.1905Z" fill="white" fill-opacity="0.33"/>
</svg>
