<svg width="177" height="41" viewBox="0 0 177 41" fill="none" xmlns="http://www.w3.org/2000/svg">
<path d="M14.1253 1.80402C14.0957 1.82042 14.053 1.88274 14.03 1.94178C14.0037 2.00082 13.9544 2.12218 13.9117 2.21402C13.8723 2.30258 13.7409 2.61418 13.6193 2.90282C13.2513 3.78186 12.65 5.19226 12.6007 5.29722C12.5777 5.3497 12.5021 5.52682 12.4364 5.69082C12.3674 5.85154 12.2787 6.06474 12.236 6.15986C12.1933 6.25498 12.1571 6.34026 12.1571 6.34682C12.1571 6.35338 12.121 6.43866 12.0783 6.53378C12.0356 6.6289 11.8516 7.0553 11.6709 7.47842C10.2284 10.8667 8.32928 15.1799 7.26143 17.4988C7.20228 17.6235 6.98871 18.0958 6.785 18.5484C6.58128 18.9978 6.36771 19.4701 6.30857 19.598C6.24943 19.7227 6.10814 20.0343 5.99643 20.2868C5.88143 20.5394 5.73357 20.8641 5.66785 21.0084C5.59885 21.1527 5.451 21.4775 5.33928 21.73C5.22428 21.9826 4.88585 22.7271 4.58357 23.3864C3.85414 24.9805 3.90014 24.8788 3.64714 25.4364C3.52557 25.7054 3.37771 26.0301 3.31857 26.158C3.25943 26.2827 3.18057 26.4598 3.13785 26.5516C3.09843 26.6402 3.02285 26.8042 2.97357 26.9124C1.68228 29.7135 1.47528 30.1891 1.495 30.2941C1.518 30.4253 1.61985 30.504 1.76443 30.504C1.87943 30.504 2.599 30.2744 3.94285 29.8054C4.38643 29.6512 5.08957 29.4085 5.50357 29.2642C6.52214 28.9099 9.81443 27.7652 10.6293 27.4799C10.9907 27.3552 11.6479 27.1256 12.0914 26.9715C12.9917 26.6631 13.501 26.4827 13.9643 26.322C14.306 26.2007 15.9554 25.6267 17.02 25.2593C17.4504 25.1084 17.7166 25.0002 17.7626 24.951C17.8316 24.8821 17.9663 24.5213 18.4657 23.0912C18.5939 22.7206 18.7351 22.3237 18.7779 22.2056C18.8929 21.894 19.044 21.4643 19.2214 20.9428C19.3101 20.6903 19.435 20.3295 19.5007 20.1392C20.0396 18.6107 20.9957 15.7899 21.2421 14.9896C21.2849 14.8551 21.4163 14.432 21.5379 14.0548C21.7646 13.3332 22.0899 12.2902 22.1621 12.0376C22.1851 11.9556 22.2673 11.6899 22.3429 11.4472C22.4184 11.2045 22.5006 10.9355 22.5269 10.847C22.6123 10.5649 22.6616 10.3911 23.0493 9.11842C23.2563 8.42306 23.46 7.7605 23.4929 7.6457C23.5783 7.37018 23.575 7.3341 23.4699 7.2193C23.3089 7.04874 20.7263 5.36282 19.55 4.65762C18.9257 4.2837 17.4307 3.4473 16.7079 3.06682C16.5107 2.96186 16.3333 2.86674 16.3136 2.85362C16.2117 2.78146 14.2567 1.77122 14.2206 1.77122C14.1976 1.77122 14.1549 1.78762 14.1253 1.80402Z" fill="white"/>
<path d="M42.2378 7.64236C40.4438 7.8162 40.2335 7.83588 39.5928 7.90476C38.0058 8.06876 36.6422 8.26556 35.2392 8.53124C33.8461 8.79364 32.8308 8.99372 32.7388 9.02324C32.5417 9.08556 32.522 9.13476 32.4595 9.7514C32.1572 12.6444 31.7958 16.3409 31.7071 17.4889C31.6808 17.8235 31.6118 18.7944 31.5264 20.008C31.487 20.5688 31.3785 22.3302 31.3457 22.9108C31.3292 23.2519 31.3062 23.6225 31.2964 23.7308C31.2898 23.839 31.2734 24.1112 31.2635 24.3376C31.2537 24.5639 31.2372 24.8197 31.2307 24.9116C31.2208 25.0001 31.2077 25.2297 31.1978 25.42C31.165 26.0694 31.1157 27.0436 31.0992 27.306C31.0861 27.5192 31.0927 27.5848 31.1387 27.6569C31.1715 27.7061 31.441 27.962 31.74 28.2276C32.039 28.4933 32.5417 28.9394 32.8571 29.2215C34.5 30.6876 36.3268 32.3211 37.1614 33.0624C37.6772 33.5216 38.3639 34.1316 38.6859 34.4236C40.4734 36.0176 43.2794 38.5104 43.4108 38.6187C43.7361 38.8844 43.7591 38.9008 43.8708 38.9008C43.9497 38.9008 44.0088 38.8745 44.0647 38.8155C44.1369 38.7368 44.1435 38.7105 44.1369 38.3989C44.1271 37.9364 44.0647 36.1095 44.0449 35.67C44.0384 35.4699 44.0219 35.05 44.0121 34.7352C44.0022 34.4203 43.9792 33.7413 43.9628 33.2264C43.9464 32.7114 43.9168 31.8422 43.8971 31.2912C43.8609 30.153 43.8379 29.4675 43.8149 28.8312C43.8051 28.5884 43.7821 27.857 43.7657 27.2076C43.7492 26.5581 43.7262 25.8792 43.7164 25.6988C43.7098 25.5184 43.6934 25.0395 43.6835 24.6328C43.6737 24.226 43.6572 23.7472 43.6507 23.5668C43.6441 23.3864 43.6277 22.8189 43.6178 22.304C43.6079 21.789 43.5915 21.274 43.5849 21.156C43.5784 21.0379 43.5619 20.3458 43.5521 19.6144C43.5422 18.8829 43.5291 18.0924 43.5192 17.8596C43.5094 17.6234 43.4962 16.318 43.4831 14.9568C43.4732 13.5956 43.4601 12.3032 43.4535 12.0868C43.4469 11.8703 43.4404 10.7944 43.4404 9.69892L43.4371 7.70468L43.3549 7.62596C43.3122 7.58004 43.2564 7.54724 43.2334 7.54724C43.2104 7.55052 42.7635 7.59316 42.2378 7.64236Z" fill="white"/>
<path d="M122.094 16.1486C122.094 22.7772 122.187 26.0686 122.35 26.5943C123.001 28.4686 124.583 29.68 126.77 29.9315L127.91 30.0686V28.4686V26.8915L127.142 26.6172C126.7 26.4572 126.235 26.0915 126.095 25.7486C125.886 25.36 125.816 22.4115 125.816 15.8286V6.45717H123.955H122.094V16.1486Z" fill="white"/>
<path d="M70.3285 8.33136C68.0485 14.9371 63.7212 28.8571 63.8142 29.2685C63.9305 29.7256 64.0701 29.7714 65.6754 29.7714H67.3971L68.1416 27.3714L68.8861 24.9714H73.4693H78.0526L78.7971 27.3714L79.5416 29.7714H81.2632C82.8918 29.7714 83.0081 29.7256 83.1244 29.2456C83.2175 28.8799 82.1007 25.1314 79.9371 18.4342L76.5869 8.17136L73.5159 8.10279C71.1661 8.05708 70.4216 8.10279 70.3285 8.33136ZM75.3771 16.4228C76.2379 19.0514 76.9359 21.2685 76.9359 21.3599C76.9591 21.4742 75.3771 21.5428 73.4461 21.5428C70.5146 21.5428 69.9563 21.4971 70.0493 21.2228C70.1191 21.0399 70.8171 18.9142 71.6081 16.4685C72.3759 14.0456 73.0738 11.9199 73.1203 11.7599C73.4228 10.9371 73.9346 12.0114 75.3771 16.4228Z" fill="white"/>
<path d="M89.22 13.6343C87.4053 14.2743 86.5212 15.7371 86.4979 18.0686C86.4979 21.2457 88.08 22.5029 92.7563 23.0286C93.8498 23.1429 94.3849 23.3257 94.8036 23.7371C95.4783 24.4 95.5016 25.4971 94.8734 26.1143C94.4547 26.5257 94.1057 26.5714 90.453 26.5714H86.4979V27.5771C86.4979 28.4457 86.591 28.6514 87.3122 29.2L88.1498 29.8171L92.0351 29.7257C96.4787 29.6343 97.293 29.4057 98.2934 27.92C98.9914 26.8686 99.2706 24.5829 98.8518 23.3029C98.1771 21.3371 97.1767 20.7429 93.6404 20.1486C90.7089 19.6686 90.2204 19.3714 90.2204 18.0914C90.2204 16.6743 90.6624 16.5143 94.8036 16.5143H98.3632V15.5086C98.3632 14.6171 98.2702 14.4571 97.4791 13.9086C96.6183 13.3371 96.4787 13.3143 93.3379 13.3143C91.2208 13.3371 89.8016 13.4514 89.22 13.6343Z" fill="white"/>
<path d="M102.411 13.6571C102.295 13.9314 104.179 19.8514 107.972 31.0971L108.46 32.5143L107.739 34.7086C107.32 35.92 107.064 37.04 107.134 37.2228C107.227 37.4514 107.693 37.5428 108.972 37.5428H110.671L111.392 35.3257C111.787 34.0914 113.532 28.7886 115.277 23.5314C116.999 18.2743 118.348 13.84 118.278 13.6343C118.162 13.36 117.79 13.3143 116.464 13.36L114.765 13.4286L112.671 19.9886C111.531 23.6228 110.461 26.5714 110.345 26.5714C110.205 26.5714 109.158 23.6228 108.018 19.9886L105.924 13.4286L104.226 13.36C102.877 13.3143 102.528 13.36 102.411 13.6571Z" fill="white"/>
<path d="M132.331 19.8742C132.331 25.7942 132.377 26.5485 132.773 27.3942C133.238 28.3999 134.075 29.0856 135.332 29.4971C135.844 29.6799 138.007 29.7714 141.311 29.7714H146.522V21.5428V13.3142H144.661H142.8V19.9428V26.5714H139.938C135.704 26.5714 136.053 27.1885 136.053 19.5771V13.3142H134.192H132.331V19.8742Z" fill="white"/>
<path d="M152.106 21.5428V29.7714H154.084H156.061V23.1428V16.5142H159.202H162.343V23.1428V29.7714H164.32H166.298V23.1428V16.5142H169.066C171.277 16.5142 171.928 16.5828 172.207 16.8799C172.533 17.1771 172.58 18.1142 172.58 23.5085V29.7714H174.58H176.581L176.488 23.1885C176.395 15.9656 176.325 15.5542 174.929 14.3885C174.534 14.0685 173.813 13.6799 173.324 13.5428C172.789 13.4056 168.578 13.3142 162.296 13.3142H152.106V21.5428Z" fill="white"/>
</svg>
