<svg width="20" height="20" viewBox="0 0 20 20" fill="none" xmlns="http://www.w3.org/2000/svg">
<path d="M7.11113 0.207335C7.11113 0.32176 7.1063 1.26064 7.10148 2.2934C7.09183 4.15159 7.09183 4.17213 7.07157 4.26406C7.03394 4.43325 6.94131 4.52812 6.78017 4.56235C6.69816 4.57995 6.69623 4.57995 6.60939 4.55941C6.52352 4.53888 6.49747 4.52421 5.35216 3.85135C4.70955 3.47384 3.90099 3.00049 3.55653 2.80098L2.93032 2.43716L2.87726 2.52616C2.7441 2.75306 2.45561 3.25966 1.61134 4.74328C1.11057 5.62249 0.557698 6.59266 0.383055 6.89976C0.207448 7.20587 0.0511384 7.47971 0.0366652 7.50807L0.00868387 7.55892L0.0501735 7.58533C0.321303 7.75941 0.844265 8.07433 1.61617 8.52812C3.13198 9.42005 3.41662 9.59022 3.5025 9.65281C3.59416 9.72127 3.6424 9.79462 3.66845 9.90709L3.68872 9.99707L3.66749 10.091C3.63661 10.2328 3.5903 10.2934 3.42048 10.4147C3.26321 10.5271 3.17251 10.5819 1.89598 11.3271C0.359898 12.224 0 12.4362 0 12.444C0 12.4548 0.0578925 12.5575 0.246043 12.8851C0.474718 13.2802 0.977418 14.1623 1.17522 14.5134C1.27363 14.6885 1.64994 15.3506 2.01176 15.9853C2.37359 16.62 2.72481 17.2381 2.79331 17.3594C2.86182 17.4807 2.91778 17.5804 2.91875 17.5824C2.92261 17.5873 6.37589 15.5775 6.50519 15.4954C6.52448 15.4826 6.58045 15.4621 6.63062 15.4494L6.72035 15.4269L6.80526 15.4484C6.91043 15.4748 6.97122 15.5149 7.02911 15.5922C7.06288 15.6391 7.07543 15.6665 7.09086 15.7379C7.11113 15.8249 7.11113 15.8377 7.11113 17.913V20H10.025H12.939L12.9399 18.9897C12.9409 18.4352 12.9448 17.5012 12.9486 16.9144C12.9554 15.8905 12.9563 15.8455 12.9747 15.7731C13.0113 15.6303 13.102 15.5374 13.24 15.5002C13.3278 15.4768 13.3693 15.4768 13.4561 15.4993C13.514 15.5149 13.6945 15.6176 14.5657 16.1301C16.4501 17.2362 17.0474 17.5814 17.059 17.5687C17.0677 17.5589 17.1661 17.3868 18.7012 14.6944C19.7587 12.8401 19.9729 12.4616 19.9729 12.445C19.9729 12.4323 19.1798 11.9628 17.7247 11.113C17.1439 10.7736 16.9992 10.6856 16.7637 10.534C16.4366 10.3227 16.3884 10.2748 16.3488 10.1183L16.3257 10.0245L16.3459 9.9335C16.3787 9.79169 16.4154 9.74866 16.6277 9.60489C16.7608 9.51394 16.8911 9.43765 18.5304 8.48117C18.8122 8.31785 19.1788 8.10269 19.3457 8.00489C19.5127 7.90709 19.7278 7.78191 19.8234 7.72616C19.9189 7.67042 19.998 7.62347 19.9999 7.62249C20.0047 7.61956 19.7819 7.22152 19.5339 6.78729C19.421 6.59071 19.2039 6.21027 19.0515 5.94132C18.899 5.67237 18.5835 5.1198 18.3519 4.71394C18.1203 4.30807 17.7662 3.68509 17.5655 3.33007C17.2375 2.74817 17.1323 2.56333 17.0908 2.49584L17.0773 2.47335L17.0127 2.51051C16.8515 2.60049 15.6213 3.3154 14.9131 3.73007C13.6848 4.44988 13.598 4.4978 13.4639 4.53203L13.3664 4.55746L13.2738 4.53399C13.104 4.49291 13.0248 4.40685 12.9824 4.21712C12.9448 4.05086 12.9399 3.81027 12.9332 1.80342L12.9264 0.0322742L12.747 0.0254288C12.5559 0.0185814 9.2435 0.00097847 7.91004 0H7.11113V0.207335ZM10.4834 5.92176C10.659 5.93936 10.7342 5.95306 10.9851 6.01467C11.3373 6.10073 11.5756 6.1868 11.8448 6.32176C12.2143 6.50758 12.6032 6.79022 12.8917 7.08068C13.049 7.23912 13.1358 7.34181 13.267 7.52078C13.6279 8.01467 13.8112 8.40489 13.9511 8.97311C14.0438 9.34963 14.0621 9.47188 14.0737 9.80929C14.0833 10.0919 14.0553 10.5125 14.0148 10.711C13.8865 11.3262 13.6983 11.7917 13.3963 12.2377C13.0837 12.6993 12.7981 12.9956 12.36 13.3125C11.9336 13.6205 11.538 13.8034 11.0044 13.9364C10.5924 14.0391 10.3927 14.0606 9.97584 14.044C9.54068 14.0264 9.38341 14.0068 9.05535 13.9267C8.77071 13.8572 8.58545 13.7878 8.28345 13.6381C7.7518 13.3731 7.2684 12.9888 6.93455 12.5663C6.60843 12.1535 6.37203 11.7174 6.21862 11.2421C6.17037 11.0924 6.09511 10.8 6.07389 10.6748C6.0488 10.5252 6.03722 10.2122 6.04397 9.81907C6.04976 9.42005 6.05845 9.3291 6.10766 9.11491C6.22827 8.59071 6.4058 8.16333 6.67211 7.7555C6.97894 7.28606 7.24814 6.9956 7.66303 6.68949C8.12135 6.3511 8.54493 6.15355 9.11807 6.01076C9.41814 5.93643 9.54743 5.91687 9.83207 5.90318C9.96233 5.89731 10.3357 5.90807 10.4834 5.92176Z" fill="white"/>
</svg>
